#!OML:ASF X:\für Bonn\!DataBase\2005_08_11_Bastian_Final\c3d\Bastian.ASF
:FULLY-SPECIFIED
:DEGREES
112
root -5.00289 16.987 0.27462 539.183 43.0611 -170.27
lowerback 30.0982 -0.776617 -4.09748
upperback 17.8085 1.86052 -1.54084
thorax 3.83161 2.23685 0.253109
lowerneck -14.1354 -14.7367 -23.7648
upperneck -8.75737 -16.4775 41.0026
head 6.8885 -6.52018 16.6355
rclavicle 5.00937e-014 -8.34896e-014
rhumerus -12.3233 15.5552 -86.9221
rradius 48.3131
rwrist 14.681
rhand -15.2391 3.50679
rfingers 7.12502
rthumb 10.9341 -26.1885
lclavicle 5.00937e-014 -8.34896e-014
lhumerus -10.7085 -8.51767 -276.739
lradius 18.5753
lwrist -344.986
lhand -15.6432 -6.80064
lfingers 7.12502
lthumb 10.5443 22.9149
rfemur -29.7296 -1.13556 25.1774
rtibia 96.614
rfoot -2.76527 0.840668
rtoes -18.842
lfemur -17.5007 2.88855 -12.9096
ltibia 47.0865
lfoot -12.8668 -11.4535
ltoes -6.83787
113
root -4.97325 16.9889 0.21751 538.863 43.2506 -170.264
lowerback 30.464 -0.841218 -4.20733
upperback 17.8779 1.77306 -1.53754
thorax 3.76279 2.19897 0.332416
lowerneck -14.0941 -14.6986 -23.7665
upperneck -8.84206 -16.4053 41.1256
head 6.85957 -6.49232 16.7203
rclavicle 9.06458e-014 -6.12257e-014
rhumerus -12.7126 15.457 -87.1215
rradius 47.4409
rwrist 14.1533
rhand -14.8842 3.59851
rfingers 7.12502
rthumb 11.2765 -26.0784
lclavicle 9.06458e-014 -6.12257e-014
lhumerus -10.2714 -9.49656 -276.949
lradius 19.878
lwrist -344.21
lhand -15.8615 -6.61594
lfingers 7.12502
lthumb 10.3337 23.1102
rfemur -31.0395 -1.10353 25.0538
rtibia 97.24
rfoot -3.22334 0.966319
rtoes -18.77
lfemur -16.8065 3.1297 -12.9011
ltibia 47.0181
lfoot -13.0999 -11.6061
ltoes -6.47336
114
root -4.94282 16.9889 0.162684 538.557 43.4411 -170.257
lowerback 30.8141 -0.895594 -4.31904
upperback 17.9417 1.69615 -1.54184
thorax 3.69548 2.16599 0.402605
lowerneck -13.9899 -14.6599 -23.7953
upperneck -8.99024 -16.3235 41.2932
head 6.81049 -6.46781 16.8368
rclavicle 1.11319e-014 -1.13705e-013
rhumerus -13.1209 15.3731 -87.347
rradius 46.6204
rwrist 13.5381
rhand -14.5585 3.62528
rfingers 7.12502
rthumb 11.5905 -26.0342
lclavicle 1.11319e-014 -1.13705e-013
lhumerus -9.85127 -10.6333 -277.203
lradius 21.2176
lwrist -343.31
lhand -16.0732 -6.51783
lfingers 7.12502
lthumb 10.1295 23.2183
rfemur -32.3696 -1.07867 24.9384
rtibia 97.8091
rfoot -3.63822 1.14366
rtoes -18.5954
lfemur -16.1513 3.37742 -12.883
ltibia 46.976
lfoot -13.331 -11.7766
ltoes -5.99214
115
root -4.9121 16.9864 0.108758 538.234 43.6064 -170.26
lowerback 31.5056 -0.922237 -4.47716
upperback 17.9585 1.61646 -1.50868
thorax 3.35344 2.13149 0.484934
lowerneck -14.0185 -14.6503 -23.8056
upperneck -9.00055 -16.3054 41.4295
head 6.83731 -6.45563 16.9158
rclavicle 8.74653e-015 -4.77083e-015
rhumerus -13.5115 15.2531 -87.553
rradius 45.7801
rwrist 12.9455
rhand -14.2074 3.67736
rfingers 7.12502
rthumb 11.9291 -25.9628
lclavicle 8.74653e-015 -4.77083e-015
lhumerus -9.3782 -11.5284 -277.475
lradius 22.4844
lwrist -342.732
lhand -16.3014 -6.60016
lfingers 7.12502
lthumb 9.90936 23.1466
rfemur -33.6442 -1.08561 24.812
rtibia 98.3023
rfoot -4.03018 1.34959
rtoes -18.3047
lfemur -15.5043 3.58277 -12.8699
ltibia 46.961
lfoot -13.5728 -11.9111
ltoes -5.76502
116
root -4.88054 16.9818 0.0558488 537.903 43.7933 -170.254
lowerback 31.8596 -0.961799 -4.62619
upperback 18.0323 1.55133 -1.48465
thorax 3.30794 2.10154 0.597044
lowerneck -14.0499 -14.6522 -23.8764
upperneck -9.01654 -16.2976 41.5738
head 6.87478 -6.4487 17.0094
rclavicle -1.35174e-014 -3.97569e-014
rhumerus -13.9034 15.2093 -87.7148
rradius 44.9915
rwrist 12.3004
rhand -13.8658 3.63525
rfingers 7.12502
rthumb 12.2585 -25.9855
lclavicle -1.35174e-014 -3.97569e-014
lhumerus -8.89311 -12.2085 -277.741
lradius 23.7037
lwrist -342.36
lhand -16.5216 -6.87572
lfingers 7.12502
lthumb 9.69696 22.8811
rfemur -34.878 -1.06339 24.7082
rtibia 98.7188
rfoot -4.38935 1.55526
rtoes -18.105
lfemur -14.8516 3.84234 -12.8319
ltibia 46.9693
lfoot -13.837 -12.1009
ltoes -5.38667
117
root -4.8486 16.9762 0.00239208 537.567 43.9547 -170.283
lowerback 32.1785 -1.00615 -4.76491
upperback 18.0986 1.48027 -1.4777
thorax 3.26927 2.06925 0.688424
lowerneck -14.0574 -14.6419 -23.9103
upperneck -9.02377 -16.2817 41.6884
head 6.89741 -6.44092 17.0833
rclavicle 3.49861e-014 -1.11319e-014
rhumerus -14.3472 15.1193 -87.8955
rradius 44.2597
rwrist 11.7021
rhand -13.4905 3.56525
rfingers 7.12502
rthumb 12.6204 -26.0335
lclavicle 3.49861e-014 -1.11319e-014
lhumerus -8.37719 -12.9336 -278.047
lradius 24.859
lwrist -341.989
lhand -16.7625 -7.25589
lfingers 7.12502
lthumb 9.46449 22.5116
rfemur -36.09 -1.0419 24.5754
rtibia 99.0491
rfoot -4.70985 1.75167
rtoes -17.975
lfemur -14.2237 4.04395 -12.8223
ltibia 46.9906
lfoot -14.0891 -12.2552
ltoes -4.9542
